# xmcd
#
# Track frame offsets:
#	150
#	9900
#	21225
#	31350
#	42900
#	53025
#	66900
#	79875
#	88500
#	99075
#	110100
#	122250
#	131775
#	142500
#	152400
#	164250
#
# Disc length: 2336 seconds
#
# Revision: 1
# Processed by: cddbd v1.5.2PL0 Copyright (c) Steve Scherf et al.
# Submitted via: audiograbber 1.83.01
#
DISCID=bc091e10
DTITLE=Bob Luman - Livin', Lovin' Sounds
DYEAR=1992
DGENRE=Country
TTITLE0=I Love You Because
TTITLE1=Oh Lonesome Me
TTITLE2=Hey Joe
TTITLE3=Bad, Bad Day
TTITLE4=Louisiana Man
TTITLE5=You Win Again
TTITLE6=The Great Snowman
TTITLE7=Go On Home Boy
TTITLE8=The File
TTITLE9=Jealous Heart
TTITLE10=I Love You So Much It Hurts
TTITLE11=Let's Think About Living
TTITLE12=(Empty Walls) A Lonely Room
TTITLE13=Fire Engine Red
TTITLE14=Poor Boy Blues
TTITLE15=It's All Over (But The Shouting)
EXTD=CASTLE Legends
EXTT0=
EXTT1=
EXTT2=
EXTT3=
EXTT4=
EXTT5=
EXTT6=
EXTT7=
EXTT8=
EXTT9=
EXTT10=
EXTT11=
EXTT12=
EXTT13=
EXTT14=
EXTT15=
PLAYORDER=
